# xmcd
#
# Track frame offsets:
#	150
#	18012
#	30675
#	47530
#	64714
#	86160
#	103300
#	121485
#	135957
#	152435
#	165702
#	182132
#	201700
#
# Disc length: 3055 seconds
#
# Revision: 1
# Processed by: cddbd v1.4PL0 Copyright (c) Steve Scherf et al.
# Submitted via: audiograbber 1.81.02
#
DISCID=ab0bed0d
DTITLE=Several - Country and Folk
DYEAR=1996
DGENRE=Country
TTITLE0=Tim O' Brien - Señor (Tales of Yankee Power)
TTITLE1=Tim O' Brien - Out In The Darkness
TTITLE2=Paulette Carlson - Hearts On The Run
TTITLE3=Kevin Welch - Wishing For You
TTITLE4=Kevin Welch - The Love I Have For You
TTITLE5=Alison Krauss - Baby, Now That I've Found You
TTITLE6=Alison Krauss - I Will
TTITLE7=Kieran Kane - Jesuis Tres Contendre
TTITLE8=Kieran Kane - So Many Miles
TTITLE9=Tammy Rogers - On A Night Like Tonight
TTITLE10=Tammy Rogers - Never Far Away
TTITLE11=Sam Bush - The Ballad of Spider John
TTITLE12=Sam Bush - Whayasay
EXTD=PARADOXX Music - Brazil
EXTT0=
EXTT1=
EXTT2=
EXTT3=
EXTT4=
EXTT5=
EXTT6=
EXTT7=
EXTT8=
EXTT9=
EXTT10=
EXTT11=
EXTT12=
PLAYORDER=
